<svg width="24" height="20" viewBox="0 0 24 20" fill="none" xmlns="http://www.w3.org/2000/svg">
<path d="M20.9445 5.24002C20.9588 5.44572 20.9588 5.65142 20.9588 5.85902C20.9588 12.1846 16.1433 19.4798 7.33794 19.4798V19.4761C4.73681 19.4798 2.18972 18.7348 0 17.3299C0.378225 17.3754 0.758345 17.3982 1.13941 17.3991C3.29501 17.401 5.38899 16.6778 7.08484 15.3459C5.03636 15.307 3.24003 13.9714 2.6125 12.0215C3.33008 12.1599 4.06947 12.1315 4.77378 11.939C2.54046 11.4878 0.933713 9.52562 0.933713 7.24679C0.933713 7.22593 0.933713 7.20603 0.933713 7.18612C1.59916 7.55676 2.34423 7.76246 3.10637 7.78521C1.00291 6.37943 0.354526 3.58114 1.62475 1.39331C4.05525 4.38404 7.64128 6.20217 11.4908 6.3946C11.105 4.73193 11.6321 2.98963 12.8758 1.82083C14.8038 0.00838536 17.8363 0.101283 19.6487 2.02843C20.7208 1.81704 21.7484 1.42365 22.6887 0.866263C22.3314 1.97439 21.5835 2.91569 20.5843 3.51384C21.5332 3.40198 22.4603 3.14793 23.3333 2.76023C22.6906 3.72333 21.8811 4.56225 20.9445 5.24002Z" fill="white"/>
</svg>
